<svg width="30" height="30" viewBox="0 0 30 30" fill="none" xmlns="http://www.w3.org/2000/svg">
<path fill-rule="evenodd" clip-rule="evenodd" d="M3 5C3.55228 5 4 5.44772 4 6V21.6547C4 22.3351 4.61581 23 5.49458 23H26C26.5523 23 27 23.4477 27 24C27 24.5523 26.5523 25 26 25H5.49458C3.62931 25 2 23.5542 2 21.6547V6C2 5.44772 2.44772 5 3 5Z" fill="white"/>
<path fill-rule="evenodd" clip-rule="evenodd" d="M25.7065 6.2923C26.0974 6.6825 26.0979 7.31567 25.7077 7.70652L20.7686 12.6539C19.7924 13.6317 18.2126 13.6317 17.2364 12.6539L13.3482 8.75915C13.1534 8.56399 12.8416 8.56399 12.6468 8.75915L7.7077 13.7065C7.3175 14.0974 6.68433 14.0979 6.29348 13.7077C5.90263 13.3175 5.90211 12.6843 6.2923 12.2935L11.2314 7.34612C12.2076 6.36834 13.7874 6.36834 14.7636 7.34612L18.6518 11.2409C18.8466 11.436 19.1584 11.436 19.3532 11.2409L24.2923 6.29348C24.6825 5.90263 25.3157 5.90211 25.7065 6.2923Z" fill="white"/>
<path fill-rule="evenodd" clip-rule="evenodd" d="M25.6502 12.2402C26.0698 12.5993 26.1189 13.2305 25.7598 13.6502L24.525 15.0931C24.166 15.5128 23.5347 15.5619 23.1151 15.2028C22.6955 14.8437 22.6464 14.2124 23.0054 13.7928L24.2402 12.3498C24.5993 11.9302 25.2306 11.8811 25.6502 12.2402ZM12.9975 14.7149C12.9239 14.7149 12.813 14.7449 12.6989 14.8782L11.4641 16.3212C11.1051 16.7408 10.4738 16.7899 10.0542 16.4308C9.63457 16.0718 9.58549 15.4405 9.94456 15.0209L11.1793 13.5779C12.164 12.4272 13.8311 12.4272 14.8157 13.5779L15.7878 14.7139C16.1468 15.1335 16.0977 15.7648 15.6781 16.1238C15.2585 16.4829 14.6272 16.4338 14.2682 16.0142L13.2961 14.8782C13.182 14.7449 13.0711 14.7149 12.9975 14.7149ZM21.9458 16.5692C22.3655 16.9282 22.4146 17.5595 22.0555 17.9791L20.8207 19.4221C19.8361 20.5728 18.169 20.5728 17.1843 19.4221L16.2123 18.2861C15.8532 17.8665 15.9023 17.2352 16.3219 16.8762C16.7415 16.5171 17.3728 16.5662 17.7319 16.9858L18.7039 18.1218C18.818 18.2551 18.9289 18.2851 19.0025 18.2851C19.0761 18.2851 19.187 18.2551 19.3011 18.1218L20.5359 16.6788C20.895 16.2592 21.5262 16.2101 21.9458 16.5692ZM8.88496 17.7972C9.30458 18.1563 9.35367 18.7876 8.99459 19.2072L7.75981 20.6502C7.40074 21.0698 6.76948 21.1189 6.34985 20.7598C5.93023 20.4007 5.88115 19.7695 6.24023 19.3498L7.475 17.9069C7.83408 17.4872 8.46534 17.4381 8.88496 17.7972Z" fill="white"/>
</svg>
